<svg width="313" height="313" viewBox="0 0 313 313" fill="none" xmlns="http://www.w3.org/2000/svg">
<rect width="313" height="313" rx="19" fill="url(#paint0_linear_10_9)"/>
<path d="M226.952 293V281.364H233.685V282.318H228.014V286.699H233.156V287.653H228.014V293H226.952ZM234.891 293H233.777L238.01 281.364H239.146L243.379 293H242.266L238.618 282.744H238.538L234.891 293ZM235.692 288.54H241.464V289.494H235.692V288.54ZM244.297 281.364L247.933 291.619H248.036L251.672 281.364H252.786L248.553 293H247.416L243.183 281.364H244.297ZM253.689 281.364H254.916L258.365 286.886H258.467L261.916 281.364H263.143L258.945 287.96V293H257.888V287.96L253.689 281.364Z" fill="white"/>
<path d="M32.3807 22.3068C33.108 22.3125 33.8125 22.4602 34.4943 22.75C35.1818 23.0341 35.8011 23.4943 36.3523 24.1307C36.9034 24.7614 37.3409 25.6023 37.6648 26.6534C37.9886 27.6989 38.1506 28.9858 38.1506 30.5142C38.1506 31.9403 38.0256 33.2472 37.7756 34.4347C37.5256 35.6222 37.1506 36.6506 36.6506 37.5199C36.1563 38.3835 35.5313 39.054 34.7756 39.5312C34.0256 40.0028 33.1477 40.2386 32.142 40.2386C31.2045 40.2386 30.3722 40.0426 29.6449 39.6506C28.9233 39.2585 28.3381 38.7159 27.8892 38.0227C27.4403 37.3239 27.1619 36.517 27.054 35.6023H28.6222C28.7756 36.5341 29.1506 37.3011 29.7472 37.9034C30.3494 38.5057 31.1477 38.8068 32.142 38.8068C33.5682 38.8068 34.6761 38.142 35.4659 36.8125C36.2557 35.483 36.6506 33.5909 36.6506 31.1364H36.5398C36.267 31.6477 35.9091 32.0937 35.4659 32.4744C35.0284 32.8551 34.5284 33.1534 33.9659 33.3693C33.4034 33.5795 32.8097 33.6847 32.1847 33.6847C31.2131 33.6847 30.3239 33.4403 29.517 32.9517C28.7102 32.4574 28.0653 31.7841 27.5824 30.9318C27.0994 30.0739 26.858 29.0966 26.858 28C26.858 26.9659 27.0852 26.017 27.5398 25.1534C28 24.2841 28.642 23.5909 29.4659 23.0739C30.2955 22.5511 31.267 22.2955 32.3807 22.3068ZM32.3807 23.7386C31.625 23.7386 30.946 23.9318 30.3438 24.3182C29.7472 24.6989 29.2727 25.2131 28.9205 25.8608C28.5739 26.5028 28.4006 27.2159 28.4006 28C28.4006 28.7898 28.5739 29.5085 28.9205 30.1562C29.2727 30.7983 29.7472 31.3097 30.3438 31.6903C30.946 32.0653 31.625 32.2528 32.3807 32.2528C32.9602 32.2528 33.5 32.1364 34 31.9034C34.5 31.6648 34.9318 31.3409 35.2955 30.9318C35.6648 30.5227 35.9432 30.0597 36.1307 29.5426C36.3239 29.0199 36.4006 28.4716 36.3608 27.8977C36.2926 27.1023 36.0795 26.392 35.7216 25.767C35.3693 25.1364 34.9034 24.642 34.3239 24.2841C33.75 23.9205 33.1023 23.7386 32.3807 23.7386Z" fill="white"/>
<path d="M101.454 234.333L115.808 172.279L67.6667 130.542L131.267 125.021L156 66.5L180.733 125.021L244.333 130.542L196.192 172.279L210.546 234.333L156 201.429L101.454 234.333Z" fill="white"/>
<defs>
<linearGradient id="paint0_linear_10_9" x1="1.79788e-06" y1="3.5" x2="313" y2="313" gradientUnits="userSpaceOnUse">
<stop stop-color="#D76161"/>
<stop offset="1" stop-color="#A70000"/>
</linearGradient>
</defs>
</svg>
