<svg width="341" height="116" viewBox="0 0 341 116" fill="none" xmlns="http://www.w3.org/2000/svg">
<path d="M88.4716 93V23.1818H136.131V36.8864H105.347V51.2045H133.097V64.9432H105.347V93H88.4716ZM151.011 93H132.875L156.432 23.1818H178.898L202.455 93H184.318L167.92 40.7727H167.375L151.011 93ZM148.591 65.5227H186.5V78.3409H148.591V65.5227ZM216.449 23.1818L232.062 74.3182H232.642L248.256 23.1818H267.142L243.585 93H221.119L197.562 23.1818H216.449ZM271.182 23.1818H290.034L304.795 52.3977H305.409L320.17 23.1818H339.023L313.489 69.6818V93H296.716V69.6818L271.182 23.1818Z" fill="#B91C1C"/>
<rect y="22" width="71" height="71" rx="19" fill="url(#paint0_linear_40_4)"/>
<path d="M23.0136 75.1555L26.2696 61.0793L15.3493 51.6117L29.7761 50.3594L35.3866 37.0847L40.997 50.3594L55.4239 51.6117L44.5035 61.0793L47.7596 75.1555L35.3866 67.6916L23.0136 75.1555Z" fill="white"/>
<path d="M11.2651 32.48C11.6591 32.4831 12.0407 32.5631 12.41 32.7201C12.7824 32.8739 13.1179 33.1232 13.4164 33.4679C13.7149 33.8096 13.9519 34.265 14.1273 34.8344C14.3028 35.4007 14.3905 36.0978 14.3905 36.9257C14.3905 37.6982 14.3228 38.406 14.1873 39.0493C14.0519 39.6925 13.8488 40.2495 13.578 40.7204C13.3102 41.1882 12.9717 41.5514 12.5623 41.8099C12.1561 42.0654 11.6806 42.1931 11.1359 42.1931C10.628 42.1931 10.1772 42.0869 9.78323 41.8745C9.39237 41.6622 9.07537 41.3683 8.83223 40.9928C8.5891 40.6142 8.43829 40.1772 8.37982 39.6817H9.22925C9.31235 40.1864 9.51547 40.6019 9.83863 40.9282C10.1649 41.2544 10.5973 41.4175 11.1359 41.4175C11.9083 41.4175 12.5085 41.0574 12.9363 40.3372C13.3641 39.6171 13.578 38.5922 13.578 37.2627H13.518C13.3702 37.5397 13.1763 37.7813 12.9363 37.9875C12.6993 38.1937 12.4285 38.3552 12.1238 38.4722C11.8191 38.5861 11.4975 38.643 11.1589 38.643C10.6327 38.643 10.151 38.5107 9.71398 38.246C9.27695 37.9782 8.92764 37.6135 8.66604 37.1519C8.40444 36.6872 8.27364 36.1578 8.27364 35.5638C8.27364 35.0037 8.39675 34.4897 8.64296 34.0219C8.89225 33.551 9.24002 33.1756 9.68628 32.8955C10.1356 32.6123 10.6619 32.4738 11.2651 32.48ZM11.2651 33.2556C10.8558 33.2556 10.488 33.3602 10.1618 33.5695C9.83863 33.7757 9.58164 34.0542 9.39083 34.4051C9.20309 34.7529 9.10922 35.1391 9.10922 35.5638C9.10922 35.9916 9.20309 36.3809 9.39083 36.7318C9.58164 37.0796 9.83863 37.3565 10.1618 37.5627C10.488 37.7659 10.8558 37.8674 11.2651 37.8674C11.579 37.8674 11.8714 37.8043 12.1422 37.6782C12.4131 37.5489 12.647 37.3735 12.844 37.1519C13.044 36.9303 13.1948 36.6795 13.2964 36.3994C13.401 36.1163 13.4426 35.8193 13.421 35.5084C13.3841 35.0775 13.2687 34.6928 13.0748 34.3543C12.884 34.0127 12.6316 33.7449 12.3177 33.551C12.0068 33.3541 11.656 33.2556 11.2651 33.2556Z" fill="white"/>
<defs>
<linearGradient id="paint0_linear_40_4" x1="2.60862" y1="22" x2="71" y2="93" gradientUnits="userSpaceOnUse">
<stop stop-color="#D76161"/>
<stop offset="1" stop-color="#A70000"/>
</linearGradient>
</defs>
</svg>
