<svg width="977" height="686" viewBox="0 0 977 686" fill="none" xmlns="http://www.w3.org/2000/svg">
<circle cx="469" cy="603" r="58" stroke="white" stroke-width="50"/>
<path d="M882 568L885 157.5H815L812 561.5H606C583.5 490 515 462.5 487.5 459.5V0.5H417V523.5C487.5 475.5 578 536.5 561.5 627C642.833 627 769.4 629 821 629C872.6 629 882 602 882 568Z" fill="white"/>
<path d="M75.0001 561.5H404C380 595.9 398.5 618.833 401 627L67.5001 629C21 629 0.00012207 610 0.00012207 561.5V57H75.0001V561.5Z" fill="white"/>
<circle cx="937" cy="355" r="40" fill="white"/>
<circle cx="937" cy="459" r="40" fill="white"/>
</svg>
